<?xml version="1.0" standalone="no"?>
<!DOCTYPE svg PUBLIC "-//W3C//DTD SVG 20010904//EN"
 "http://www.w3.org/TR/2001/REC-SVG-20010904/DTD/svg10.dtd">
<svg version="1.0" xmlns="http://www.w3.org/2000/svg"
 width="500.000000pt" height="500.000000pt" viewBox="0 0 500.000000 500.000000"
 preserveAspectRatio="xMidYMid meet">

<g transform="translate(0.000000,500.000000) scale(0.100000,-0.100000)"
fill="#000000" stroke="none">
<path d="M0 2500 l0 -2500 2500 0 2500 0 0 2500 0 2500 -2500 0 -2500 0 0
-2500z m1378 278 c10 -13 202 -471 202 -483 0 -4 -14 -5 -31 -3 -28 3 -34 9
-52 56 l-20 52 -118 0 -119 0 -25 -55 c-20 -46 -28 -55 -49 -55 -17 0 -26 6
-26 15 0 14 168 423 191 468 11 20 32 22 47 5z m1230 0 c5 -7 42 -94 82 -193
40 -99 76 -183 79 -187 4 -4 40 77 81 180 41 103 78 193 83 200 5 6 21 12 34
12 22 0 25 -4 20 -27 -3 -16 -47 -128 -98 -251 -124 -295 -110 -296 -241 21
-54 131 -96 242 -93 248 9 13 41 11 53 -3z m636 6 c13 -5 16 -24 16 -105 l0
-100 29 22 c24 17 39 21 79 17 60 -6 95 -30 122 -84 69 -139 -61 -302 -189
-236 -33 17 -40 18 -45 6 -3 -8 -17 -14 -31 -14 l-25 0 0 244 c0 186 3 246 13
249 6 3 13 6 14 6 1 1 8 -2 17 -5z m-134 -49 c26 -32 -13 -81 -47 -59 -35 22
-23 74 17 74 10 0 23 -7 30 -15z m-1032 -62 c3 -48 5 -52 30 -55 21 -2 27 -8
27 -28 0 -20 -6 -26 -27 -28 l-28 -3 0 -105 c0 -102 1 -105 25 -114 30 -11 34
-46 6 -55 -28 -9 -70 4 -81 25 -6 10 -10 70 -10 134 l0 115 -27 3 c-22 2 -29
9 -31 31 -3 24 0 27 27 27 30 0 31 1 31 48 0 55 5 64 35 60 17 -3 20 -11 23
-55z m359 -78 c91 -53 105 -185 29 -261 -110 -110 -292 -33 -290 123 2 133
143 208 261 138z m-757 -86 c0 -109 0 -111 29 -140 36 -36 70 -37 108 -5 27
23 28 29 33 138 5 113 5 113 30 113 l25 0 0 -160 c0 -160 0 -160 -23 -163 -17
-3 -25 2 -29 18 l-6 21 -24 -23 c-32 -30 -100 -32 -140 -2 -50 36 -63 77 -63
195 0 58 3 109 7 112 3 4 17 7 30 7 23 0 23 -1 23 -111z m1428 -56 l2 -163
-30 0 -30 0 0 158 c0 87 3 162 7 166 4 4 16 6 28 4 19 -3 20 -11 23 -165z
m683 144 c42 -28 70 -81 67 -127 l-3 -35 -117 -3 c-108 -2 -118 -4 -118 -21 0
-28 56 -71 92 -71 16 0 43 8 60 18 28 16 30 16 44 -2 20 -29 19 -32 -29 -55
-50 -24 -85 -26 -130 -7 -95 39 -132 171 -72 262 42 64 142 84 206 41z m-2161
-584 c11 -25 17 -49 14 -52 -4 -3 -9 0 -11 7 -6 15 -45 16 -61 0 -7 -7 -12 -9
-12 -6 0 9 41 98 45 98 2 0 13 -21 25 -47z m166 -33 c21 -18 42 3 47 48 4 32
4 31 3 -7 -1 -51 -24 -74 -53 -55 -12 8 -18 25 -19 55 -1 38 -1 39 3 7 2 -20
11 -42 19 -48z m239 71 c-14 -6 -22 -21 -26 -52 l-6 -44 -1 47 c-2 35 -6 48
-19 51 -10 3 2 5 27 5 31 0 39 -2 25 -7z m213 -3 c7 -7 12 -24 12 -38 0 -14
-5 -31 -12 -38 -28 -28 -88 -2 -88 38 0 40 60 66 88 38z m174 -25 l15 -38 17
40 c13 31 19 37 26 25 5 -8 9 -33 9 -55 l-1 -40 -10 35 -10 35 -15 -35 -15
-35 -19 40 -18 40 -1 -32 c0 -17 -5 -35 -12 -39 -8 -5 -9 4 -5 32 4 21 7 45 7
52 0 25 18 11 32 -25z m276 25 c7 -7 12 -24 12 -38 0 -14 -5 -31 -12 -38 -28
-28 -88 -2 -88 38 0 40 60 66 88 38z m190 5 c-14 -3 -18 -16 -20 -51 l-2 -47
-3 47 c-3 33 -9 48 -21 51 -9 3 1 5 23 5 22 0 32 -2 23 -5z m152 -43 c0 -27
-4 -50 -10 -50 -11 0 -14 83 -3 93 12 12 13 8 13 -43z m146 13 l17 -38 15 38
c8 20 19 37 23 37 9 0 -8 -49 -29 -87 -8 -14 -12 -13 -25 13 -18 37 -30 74
-23 74 3 0 13 -17 22 -37z m227 30 c-40 -5 -46 -33 -7 -33 14 0 23 -4 19 -10
-3 -5 -15 -10 -26 -10 -33 0 -22 -28 14 -33 31 -4 31 -4 -5 -5 l-38 -2 0 50 0
50 38 -2 c36 -1 36 -1 5 -5z m-1059 -375 c8 -13 5 -22 -13 -42 l-23 -24 24 -5
c14 -3 9 -5 -16 -6 l-40 -1 28 29 c31 32 30 66 0 54 -12 -4 -15 -3 -10 6 10
16 36 10 50 -11z m134 10 c7 -7 12 -24 12 -38 0 -14 -5 -31 -12 -38 -28 -28
-88 -2 -88 38 0 40 60 66 88 38z m116 -10 c8 -13 5 -22 -13 -42 l-23 -24 24
-5 c14 -3 9 -5 -16 -6 l-40 -1 28 29 c31 32 30 66 0 54 -12 -4 -15 -3 -10 6
10 16 36 10 50 -11z m98 -17 c5 -18 7 -40 4 -47 -6 -17 -42 -19 -52 -3 -4 7 0
9 14 5 27 -9 40 13 18 30 -11 8 -13 14 -6 19 16 10 2 25 -17 18 -11 -4 -14 -3
-9 6 14 22 40 7 48 -28z"/>
<path d="M1308 2575 l-46 -115 94 0 94 0 -19 48 c-49 123 -73 182 -75 182 -1
0 -23 -52 -48 -115z"/>
<path d="M3288 2533 c-15 -16 -30 -40 -33 -55 -9 -37 11 -93 42 -118 73 -57
173 28 149 126 -19 73 -108 99 -158 47z"/>
<path d="M2294 2554 c-57 -28 -79 -96 -49 -154 21 -41 53 -60 100 -60 121 0
158 163 49 215 -40 19 -61 19 -100 -1z"/>
<path d="M3684 2560 c-22 -9 -64 -56 -64 -71 0 -5 41 -9 90 -9 52 0 90 4 90
10 0 16 -53 68 -75 73 -11 3 -30 2 -41 -3z"/>
<path d="M1596 2015 c-9 -23 -8 -25 9 -25 17 0 19 9 6 28 -7 11 -10 10 -15 -3z"/>
<path d="M2193 2042 c-11 -7 -16 -26 -14 -49 2 -18 40 -26 56 -13 21 17 19 47
-4 60 -23 12 -23 12 -38 2z"/>
<path d="M2643 2042 c-11 -7 -16 -26 -14 -49 2 -18 40 -26 56 -13 21 17 19 47
-4 60 -23 12 -23 12 -38 2z"/>
<path d="M2433 1682 c-11 -7 -16 -26 -14 -49 2 -18 40 -26 56 -13 21 17 19 47
-4 60 -23 12 -23 12 -38 2z"/>
</g>
</svg>
